<svg width="1920" height="425" viewBox="0 0 1920 425" fill="none" xmlns="http://www.w3.org/2000/svg">
<path d="M180.199 0L352.759 211.88L180.199 423.76V0Z" fill="#FFFFFF"/>
<path d="M0 0L172.56 211.88L0 423.76V0Z" fill="#FFFFFF"/>
<path d="M449.131 195.548V104.618H477.581V81.6081H449.131V28.7581H481.411V3.82812H417.121V195.548H449.131Z" fill="#FFFFFF"/>
<path d="M529.68 0C503.96 0 492.75 14.24 492.75 33.69V163.78C492.75 187.61 505.61 199.66 529.68 199.66C553.75 199.66 567.43 187.61 567.43 165.42V33.69C567.43 15.89 554.3 0 529.68 0ZM529.95 29.58C534.05 29.58 536.24 31.5 536.24 36.43V163.79C536.24 169.54 534.87 172.28 530.22 172.28C525.84 172.28 524.2 169.82 524.2 163.79L523.93 36.43C523.93 31.77 526.12 29.58 529.95 29.58Z" fill="#FFFFFF"/>
<path d="M622.07 3.82812V163.778C622.07 169.528 620.7 172.268 616.05 172.268C611.67 172.268 610.03 169.808 610.03 163.778V3.82812H578.57V163.778C578.57 187.608 591.43 199.658 615.5 199.658C639.57 199.658 653.25 187.608 653.25 165.418V3.82812H622.06H622.07Z" fill="#FFFFFF"/>
<path d="M664.561 3.82812V195.548H692.461V82.9781L718.451 195.548H750.731V3.82812H723.371V103.248L702.031 3.82812H664.551H664.561Z" fill="#FFFFFF"/>
<path d="M761.799 3.82812V195.548H806.389C827.179 195.548 836.479 186.508 836.479 167.338V33.6881C836.479 15.3381 827.449 3.83812 806.659 3.83812H761.789L761.799 3.82812ZM792.989 171.448V28.4781H798.459C802.839 28.4781 805.299 31.2181 805.299 36.6981V165.698C805.299 169.528 803.389 171.448 799.829 171.448H792.989Z" fill="#FFFFFF"/>
<path d="M861.418 3.82812L840.898 195.548H869.618L874.818 142.958H893.968L898.888 195.548H928.978L907.928 3.82812H861.418ZM884.668 41.8981L891.778 119.138H877.008L884.668 41.8981Z" fill="#FFFFFF"/>
<path d="M995.862 3.82812H919.262V28.4781H941.152V195.548H973.982V28.4781H995.872V3.82812H995.862Z" fill="#FFFFFF"/>
<path d="M1003.81 3.5625V195.553H1036.64V3.5625H1003.81Z" fill="#FFFFFF"/>
<path d="M1085.1 0C1059.38 0 1048.17 14.24 1048.17 33.69V163.78C1048.17 187.61 1061.03 199.66 1085.1 199.66C1109.17 199.66 1122.85 187.61 1122.85 165.42V33.69C1122.85 15.89 1109.72 0 1085.1 0ZM1085.38 29.58C1089.48 29.58 1091.67 31.5 1091.67 36.43V163.79C1091.67 169.54 1090.31 172.28 1085.65 172.28C1081.28 172.28 1079.64 169.82 1079.64 163.79L1079.36 36.43C1079.36 31.77 1081.56 29.58 1085.38 29.58Z" fill="#FFFFFF"/>
<path d="M1133.36 3.82812V195.548H1161.27V82.9781L1187.25 195.548H1219.53V3.82812H1192.17V103.248L1170.84 3.82812H1133.35H1133.36Z" fill="#FFFFFF"/>
<path d="M1301.95 195.548V104.618H1330.4V81.6081H1301.95V28.7581H1334.23V3.82812H1269.94V195.548H1301.95Z" fill="#FFFFFF"/>
<path d="M1377.01 0C1351.29 0 1340.08 14.24 1340.08 33.69V163.78C1340.08 187.61 1352.94 199.66 1377.01 199.66C1401.08 199.66 1414.76 187.61 1414.76 165.42V33.69C1414.76 15.89 1401.63 0 1377.01 0ZM1377.29 29.58C1381.38 29.58 1383.58 31.5 1383.58 36.43V163.79C1383.58 169.54 1382.21 172.28 1377.56 172.28C1373.19 172.28 1371.55 169.82 1371.55 163.79L1371.27 36.43C1371.27 31.77 1373.46 29.58 1377.29 29.58Z" fill="#FFFFFF"/>
<path d="M1425.84 3.82812V195.548H1455.94V103.528H1460.86C1465.79 103.528 1469.35 106.268 1469.35 113.658V179.388C1469.35 190.348 1471.81 193.078 1474.28 195.548H1504.92C1502.18 193.358 1499.72 188.428 1499.72 182.398V116.118C1499.72 100.228 1488.5 92.5681 1476.19 92.2881C1488.5 91.1881 1500.82 81.0581 1500.82 64.0781V34.2281C1500.82 17.2481 1488.78 3.82812 1469.08 3.82812H1425.86H1425.84ZM1455.94 28.7481H1461.95C1465.23 28.7481 1469.34 30.1181 1469.34 37.5081V73.1081C1469.34 77.2181 1466.88 81.5981 1461.67 81.5981H1455.93V28.7581L1455.94 28.7481Z" fill="#FFFFFF"/>
<path d="M416.821 228.312L396.301 420.033H425.021L430.221 367.443H449.371L454.291 420.033H484.381L463.321 228.312H416.811H416.821ZM440.071 266.383L447.181 343.612H432.411L440.071 266.383Z" fill="#FFFFFF"/>
<path d="M494.621 228.312V420.033H521.981V302.263L543.871 420.033H566.301L586.001 302.533V420.033H613.361V228.312H571.781L555.911 332.393L540.861 228.312H494.631H494.621Z" fill="#FFFFFF"/>
<path d="M689.342 420.033V395.112H658.432V329.103H686.882V306.092H658.432V253.232H690.712V228.312H626.422V420.033H689.342Z" fill="#FFFFFF"/>
<path d="M703.049 228.307V420.027H733.139V327.997H738.059C742.979 327.997 746.539 330.737 746.539 338.127V403.857C746.539 414.817 748.999 417.547 751.459 420.017H782.099C779.369 417.827 776.899 412.897 776.899 406.867V340.587C776.899 324.707 765.679 317.037 753.369 316.757C765.679 315.667 777.989 305.527 777.989 288.547V258.697C777.989 241.717 765.949 228.297 746.259 228.297H703.039L703.049 228.307ZM733.139 253.227H739.159C742.439 253.227 746.549 254.597 746.549 261.987V297.597C746.549 301.707 744.089 306.087 738.889 306.087H733.149V253.227H733.139Z" fill="#FFFFFF"/>
<path d="M790.031 228.039V420.029H822.861V228.039H790.031Z" fill="#FFFFFF"/>
<path d="M878.092 294.317H907.912V255.977C907.912 238.177 896.152 224.477 871.532 224.477C846.912 224.477 834.602 238.717 834.602 258.167V388.257C834.602 412.087 847.462 424.137 871.532 424.137C895.602 424.137 907.912 412.087 907.912 389.897V343.887H878.092V388.257C878.092 394.007 876.722 396.747 872.072 396.747C867.692 396.747 866.052 394.287 866.052 388.257L865.782 260.897C865.782 256.237 867.972 254.047 871.802 254.047C875.902 254.047 878.092 255.967 878.092 260.897V294.307V294.317Z" fill="#FFFFFF"/>
<path d="M933.02 228.312L912.5 420.033H941.22L946.42 367.443H965.57L970.49 420.033H1000.58L979.52 228.312H933.01H933.02ZM956.27 266.383L963.38 343.612H948.61L956.27 266.383Z" fill="#FFFFFF"/>
<path d="M1009.22 228.312V420.033H1037.12V307.462L1063.11 420.033H1095.39V228.312H1068.03V327.733L1046.69 228.312H1009.22Z" fill="#FFFFFF"/>
<path d="M1144.73 228.039V420.029H1177.56V228.039H1144.73Z" fill="#FFFFFF"/>
<path d="M1189.27 228.312V420.033H1217.17V307.462L1243.16 420.033H1275.44V228.312H1248.08V327.733L1226.74 228.312H1189.27Z" fill="#FFFFFF"/>
<path d="M1287.26 228.312V420.033H1315.16V307.462L1341.15 420.033H1373.42V228.312H1346.06V327.733L1324.73 228.312H1287.26Z" fill="#FFFFFF"/>
<path d="M1421.43 224.479C1395.71 224.479 1384.5 238.719 1384.5 258.169V388.259C1384.5 412.089 1397.36 424.139 1421.43 424.139C1445.5 424.139 1459.18 412.089 1459.18 389.899V258.159C1459.18 240.359 1446.06 224.469 1421.43 224.469V224.479ZM1421.71 254.059C1425.81 254.059 1428 255.979 1428 260.909V388.269C1428 394.019 1426.64 396.759 1421.99 396.759C1417.61 396.759 1415.97 394.299 1415.97 388.269L1415.69 260.909C1415.69 256.249 1417.89 254.059 1421.71 254.059Z" fill="#FFFFFF"/>
<path d="M1493.99 228.312H1463.89L1484.96 420.033H1531.46L1551.98 228.312H1523.26L1508.48 380.592L1493.98 228.312H1493.99Z" fill="#FFFFFF"/>
<path d="M1563.27 228.312L1542.75 420.033H1571.47L1576.67 367.443H1595.82L1600.75 420.033H1630.85L1609.78 228.312H1563.28H1563.27ZM1586.52 266.383L1593.63 343.612H1578.85L1586.52 266.383Z" fill="#FFFFFF"/>
<path d="M1698.81 228.312H1622.22V252.963H1644.11V420.033H1676.94V252.963H1698.82V228.312H1698.81Z" fill="#FFFFFF"/>
<path d="M1706.75 228.039V420.029H1739.58V228.039H1706.75Z" fill="#FFFFFF"/>
<path d="M1785.88 224.479C1760.16 224.479 1748.95 238.719 1748.95 258.169V388.259C1748.95 412.089 1761.81 424.139 1785.88 424.139C1809.95 424.139 1823.63 412.089 1823.63 389.899V258.159C1823.63 240.359 1810.5 224.469 1785.88 224.469V224.479ZM1786.16 254.059C1790.26 254.059 1792.45 255.979 1792.45 260.909V388.269C1792.45 394.019 1791.09 396.759 1786.43 396.759C1782.06 396.759 1780.42 394.299 1780.42 388.269L1780.14 260.909C1780.14 256.249 1782.34 254.059 1786.16 254.059Z" fill="#FFFFFF"/>
<path d="M1833.82 228.312V420.033H1861.73V307.462L1887.71 420.033H1919.99V228.312H1892.63V327.733L1871.3 228.312H1833.81H1833.82Z" fill="#FFFFFF"/>
</svg>
